<svg xmlns="http://www.w3.org/2000/svg" viewBox="0 0 133 134.84">
  <defs>
    <style>
      .a, .b {
        fill: none;
        stroke: #282d33;
        stroke-width: 7px;
      }

      .b {
        stroke-dasharray: 4.15 4.15;
      }
    </style>
  </defs>
  <title>emailchat</title>
  <g>
    <path class="a" d="M66.51,3.5C31.7,3.5,3.5,32,3.5,67.25a63.81,63.81,0,0,0,15,41.23l-6.36,19.74,18.37-8.69a62.24,62.24,0,0,0,36,11.47c34.78,0,63-28.55,63-63.75"/>
    <g>
      <path class="a" d="M129.5,67.25c0-.67,0-1.33,0-2"/>
      <path class="b" d="M129.21,61.11c-2.93-31-27.76-55.49-58.64-57.48"/>
      <path class="a" d="M68.51,3.53c-.67,0-1.33,0-2,0"/>
    </g>
    <g>
      <path class="a" d="M85,92.92a32.11,32.11,0,0,1-19.57,6.64,32.87,32.87,0,0,1,0-65.73,32.29,32.29,0,0,1,25.13,12"/>
      <path class="a" d="M75.71,51.36s-13.35-3.08-21.07,4.26c-9.29,8.84-7.29,22.58,1.41,25.11,8.54,2.49,11.81-4.15,12.81-7S75.71,51.36,75.71,51.36Z"/>
      <path class="a" d="M74.77,54.68S69.06,75,73,78.6c11.58,10.66,38.27-17.06,12.28-38"/>
    </g>
  </g>
</svg>
