<svg viewBox="0 0 22 22" fill="none" xmlns="http://www.w3.org/2000/svg">
<path fill-rule="evenodd" clip-rule="evenodd" d="M11.2 0C5.29998 0 0.499975 4.8 0.499975 10.7C0.499975 12.7 1.09998 14.6 1.99998 16.2L0.0999756 22L5.99998 20.1C7.49998 20.9 9.29998 21.4 11.2 21.4C17.1 21.4 21.9 16.6 21.9 10.7C21.9 4.8 17.1 0 11.2 0ZM11.2 19.6C9.39998 19.6 7.69998 19.1 6.29998 18.1L2.89997 19.2L3.99998 16C2.89998 14.5 2.29998 12.7 2.29998 10.8C2.29998 5.9 6.29998 1.9 11.2 1.9C16.1 1.9 20.1 5.9 20.1 10.8C20.1 15.6 16.1 19.6 11.2 19.6ZM16.1 6.9C15.8 6.5 15.5 6.1 15.1 5.8C14.7 5.5 14.3 5.2 13.9 5C13.5 4.8 13 4.6 12.5 4.5C12 4.4 11.5 4.3 11 4.3C10.4 4.3 9.79998 4.4 9.19998 4.5C8.59998 4.7 8.09998 4.9 7.59998 5.2C7.09998 5.5 6.69998 5.8 6.29998 6.2C5.89998 6.6 5.59998 7 5.29998 7.5C4.99998 8 4.79998 8.5 4.69998 9C4.59998 9.5 4.49998 10.1 4.49998 10.6C4.49998 11.6 4.69998 12.5 4.99998 13.4C5.29998 14.2 5.79997 14.9 6.39997 15.5C6.99997 16.1 7.69998 16.5 8.59998 16.8C9.39998 17.1 10.4 17.3 11.4 17.3C11.9 17.3 12.4 17.3 12.8 17.2C13.2 17.1 13.6 17.1 14 16.9C14.4 16.7 14.7 16.7 15 16.5C15.3 16.4 15.6 16.2 15.9 16L15.6 15.1C15.5 14.9 15.4 14.8 15.2 14.8C15.1 14.8 15 14.8 14.9 14.9C14.7 15 14.5 15.1 14.3 15.2C14.1 15.3 13.8 15.4 13.5 15.4C13.2 15.5 12.9 15.5 12.5 15.6C12.1 15.6 11.8 15.7 11.3 15.7C10.6 15.7 9.89997 15.6 9.29997 15.4C8.69997 15.2 8.09998 14.9 7.69998 14.4C7.19998 14 6.89998 13.4 6.59998 12.8C6.29998 12.2 6.19998 11.4 6.19998 10.6C6.19998 9.9 6.29998 9.3 6.49998 8.7C6.69998 8.1 7.09998 7.6 7.49998 7.1C7.89998 6.7 8.39998 6.3 8.99998 6C9.59998 5.7 10.2 5.6 10.9 5.6C11.5 5.6 12.1 5.7 12.6 5.9C13.1 6.1 13.6 6.3 13.9 6.7C14.3 7 14.5 7.5 14.7 8C14.9 8.5 15 9.1 15 9.7C15 10.1 15 10.4 14.9 10.8C14.8 11.2 14.7 11.4 14.6 11.6C14.5 11.8 14.3 12 14.2 12.2C14.1 12.4 13.9 12.4 13.7 12.4C13.5 12.4 13.3 12.3 13.2 12.2C13.1 12.1 13 11.9 13 11.6C13 11.4 13 11.2 13.1 10.8L13.9 7.8C13.7 7.7 13.6 7.7 13.4 7.6C13.3 7.5 13.1 7.5 12.9 7.5C12.7 7.5 12.6 7.4 12.4 7.4C12.2 7.4 12 7.4 11.8 7.4C11.3 7.4 10.9 7.5 10.4 7.6C9.99997 7.7 9.59997 7.9 9.29997 8.1C8.99997 8.3 8.69998 8.5 8.49998 8.8C8.29998 9.1 8.09997 9.3 7.89997 9.6C7.69997 9.9 7.59998 10.2 7.59998 10.5C7.59998 10.8 7.49998 11.1 7.49998 11.4C7.49998 11.7 7.49998 12.1 7.59998 12.4C7.69998 12.7 7.79998 12.9 7.99998 13.2C8.19998 13.4 8.39998 13.6 8.69998 13.7C8.99998 14 9.29998 14 9.69998 14C10.1 14 10.5 13.9 10.8 13.8C11.1 13.7 11.5 13.4 11.8 13C11.9 13.2 12 13.3 12.1 13.5C12.2 13.6 12.3 13.7 12.5 13.8C12.7 13.9 12.8 13.9 13 14C13.2 14 13.3 14.1 13.5 14.1C14 14.1 14.5 14 14.9 13.8C15.3 13.6 15.7 13.3 16 12.9C16.3 12.5 16.6 12.1 16.7 11.6C16.9 11.1 17 10.6 17 10C17 9.4 16.9 8.9 16.8 8.4C16.5 7.8 16.3 7.3 16.1 6.9ZM11.3 11.4C11.2 11.6 11.2 11.8 11.1 11.9C11 12 10.9 12.2 10.8 12.2C10.7 12.3 10.6 12.4 10.5 12.4C10.4 12.4 10.3 12.5 10.2 12.5C9.99998 12.5 9.79998 12.4 9.69998 12.3C9.59998 12.1 9.49998 11.9 9.49998 11.6C9.49998 11.3 9.59998 11 9.69998 10.7C9.79998 10.4 9.99998 10.2 10.1 9.9C10.3 9.7 10.5 9.5 10.7 9.4C10.9 9.3 11.2 9.2 11.5 9.2C11.6 9.2 11.8 9.2 11.9 9.2L11.3 11.4Z" />
</svg>
