<svg xmlns="http://www.w3.org/2000/svg" viewBox="0 0 131.03 133">
  <title>phone dark</title>
  <g fill="none" stroke-width="7" fill-rule="evenodd">
    <path d="M85.08,3.5a42.22,42.22,0,0,0-42.45,42,41.56,41.56,0,0,0,9.23,26.13l-2.49,9.2,9.3-2.47A42.53,42.53,0,0,0,127.53,45.5,42.22,42.22,0,0,0,85.08,3.5Z"/>
    <path d="M70.36,101.62a1.33,1.33,0,0,0-.29.29l-4.56,6.79c-1.39,2.1-4.89,2.44-7.64.53-3-2.11-12.24-10.31-18-15.67C34.49,87.9,26.12,78.72,24,75.71c-1.94-2.72-1.59-6.19.54-7.56l6.87-4.51a1.56,1.56,0,0,0,.28-.29,257.57,257.57,0,0,1-16-21.24,49,49,0,0,0-8.5,6.72,52.17,52.17,0,0,0-3.54,3.92C2.49,67,9.16,86,27.61,104.12c18.64,19.3,38.61,26.4,53.47,25.26a52.3,52.3,0,0,0,4-3.51,48.42,48.42,0,0,0,6.79-8.41A263.49,263.49,0,0,1,70.36,101.62Z"/>
  </g>
</svg>
