<svg xmlns="http://www.w3.org/2000/svg" viewBox="0 0 107.74 129.98">
  <defs>
    <style>
      .a {
        fill: none;
        stroke: #ffffff;
        stroke-width: 4px;
      }
    </style>
  </defs>
  <title>plecsni2</title>
  <g>
    <g>
      <polyline class="a" points="84.03 95.57 92.37 115.05 76.28 114.48 65.51 126.34 59.46 112.58"/>
      <polyline class="a" points="51.53 104 42.43 126.34 31.45 114.67 15.37 115.51 20.53 102.7"/>
    </g>
    <path class="a" d="M105.74,53.4c0,2.62-4.8,4.83-5.19,7.33s3.46,6.14,2.66,8.56-6.06,3.1-7.23,5.37,1.38,6.89-.15,9-6.72,1.08-8.55,2.89-.82,7-2.92,8.48-6.72-1-9,.14-2.93,6.37-5.42,7.17-6-3-8.63-2.64-4.76,5.14-7.4,5.14-4.87-4.75-7.39-5.14-6.2,3.42-8.64,2.64-3.12-6-5.42-7.17-7,1.36-9-.14-1.09-6.66-2.92-8.48-7-.81-8.55-2.89,1-6.66-.15-9-6.43-2.9-7.23-5.37,3.07-6,2.67-8.56S2,56,2,53.4s4.8-4.82,5.2-7.33-3.47-6.13-2.67-8.55,6.05-3.1,7.23-5.38-1.38-6.88.14-8.95,6.73-1.08,8.56-2.9.82-7,2.92-8.47,6.72,1,9-.15,2.93-6.36,5.42-7.16,6,3,8.64,2.64S51.23,2,53.87,2s4.87,4.75,7.4,5.15,6.19-3.43,8.63-2.64,3.13,6,5.42,7.16,7-1.36,9,.15,1.09,6.66,2.92,8.48,7,.81,8.56,2.89-1,6.65.14,9,6.43,2.91,7.23,5.37-3.07,6-2.66,8.56S105.74,50.79,105.74,53.4Z"/>
    <path class="a" d="M87.47,53.4a33.6,33.6,0,1,1-33.6-33.29A33.45,33.45,0,0,1,87.47,53.4Z"/>
    <polygon class="a" points="69.58 49.85 59.16 49.85 59.16 39.53 49.38 39.53 49.38 49.85 38.95 49.85 38.95 59.53 49.38 59.53 49.38 69.85 59.16 69.85 59.16 59.53 69.58 59.53 69.58 49.85"/>
  </g>
</svg>
