<svg xmlns="http://www.w3.org/2000/svg" viewBox="0 0 130 130">
  <defs>
    <style>
      .a, .b, .c {
        fill: none;
        stroke: #ffffff;
        stroke-width: 4px;
      }

      .a {
        stroke-dasharray: 4 4;
      }

      .c {
        stroke-linejoin: bevel;
      }
    </style>
  </defs>
  <title>Asset 4</title>
  <g>
    <path class="a" d="M99.41,65A34.41,34.41,0,1,1,65,30.59,34.41,34.41,0,0,1,99.41,65Z"/>
    <g>
      <g>
        <polyline class="b" points="55.55 9.13 65.82 19.39 76.08 9.13"/>
        <line class="c" x1="65.82" y1="17.36" x2="65.81"/>
      </g>
      <g>
        <polyline class="b" points="18.82 32.18 33.33 32.17 33.33 17.66"/>
        <line class="c" x1="31.89" y1="30.74" x2="19.61" y2="18.46"/>
      </g>
      <g>
        <polyline class="b" points="9.14 74.44 19.39 64.18 9.14 53.91"/>
        <line class="c" x1="17.36" y1="64.18" y2="64.18"/>
      </g>
      <g>
        <polyline class="b" points="32.17 111.18 32.17 96.67 17.66 96.66"/>
        <line class="c" x1="30.73" y1="98.1" x2="18.46" y2="110.38"/>
      </g>
      <g>
        <polyline class="b" points="111.18 97.82 96.67 97.83 96.66 112.34"/>
        <line class="c" x1="98.1" y1="99.26" x2="110.38" y2="111.54"/>
      </g>
      <g>
        <polyline class="b" points="120.86 55.55 110.6 65.82 120.86 76.08"/>
        <line class="c" x1="112.64" y1="65.82" x2="130" y2="65.82"/>
      </g>
      <g>
        <polyline class="b" points="74.44 120.86 64.18 110.6 53.92 120.86"/>
        <line class="c" x1="64.18" y1="112.63" x2="64.18" y2="130"/>
      </g>
      <g>
        <polyline class="b" points="97.82 18.82 97.82 33.33 112.33 33.34"/>
        <line class="c" x1="99.26" y1="31.89" x2="111.53" y2="19.61"/>
      </g>
    </g>
    <path class="b" d="M82.85,70.32,84.21,69a12.42,12.42,0,0,0,0-17.68L84,51.12a12.71,12.71,0,0,0-17.86,0l-1.36,1.34-1.35-1.34a12.71,12.71,0,0,0-17.86,0l-.18.18a12.42,12.42,0,0,0,0,17.68l1.35,1.34,18,17.86Z"/>
  </g>
</svg>
