<svg xmlns="http://www.w3.org/2000/svg" viewBox="0 0 130 116.41">
  <defs>
    <style>
      .a {
        fill: none;
        stroke: #ffffff;
        stroke-width: 4px;
      }
    </style>
  </defs>
  <title>plecsni1</title>
  <g>
    <g>
      <path class="a" d="M41.54,60.7a14.79,14.79,0,0,0,1.06,1.19l1.62,1.65L65.8,85.44l21.59-21.9L89,61.89a15.48,15.48,0,0,0,0-21.67L88.79,40a14.94,14.94,0,0,0-21.36,0L65.8,41.64,64.18,40a14.94,14.94,0,0,0-21.36,0l-.22.23a15.38,15.38,0,0,0-4.43,10.83"/>
      <polyline class="a" points="76.23 55.09 66.02 55.09 59.95 55.09 56.72 61.17 52.51 47.21 48.78 55.8 32.55 55.8"/>
    </g>
    <g>
      <g>
        <path class="a" d="M35.62,5.65A12.18,12.18,0,0,0,32.4,16.19a11.91,11.91,0,0,0,10.37-3.52A12.14,12.14,0,0,0,46,2.13,12,12,0,0,0,35.62,5.65Z"/>
        <path class="a" d="M15.43,21.65a11.73,11.73,0,0,0,5.7,9,11.8,11.8,0,0,0-1.75-19A11.78,11.78,0,0,0,15.43,21.65Z"/>
        <path class="a" d="M5.49,46.85a11.68,11.68,0,0,0,9,5.77,11.82,11.82,0,0,0-.59-10.7,11.68,11.68,0,0,0-9-5.77A11.86,11.86,0,0,0,5.49,46.85Z"/>
        <path class="a" d="M7.06,73.92a11.53,11.53,0,0,0,10.53,1.41,11.78,11.78,0,0,0-5-9.44A11.57,11.57,0,0,0,2,64.48,11.76,11.76,0,0,0,7.06,73.92Z"/>
        <path class="a" d="M19.82,97.79A11.57,11.57,0,0,0,30,94.58a11.61,11.61,0,0,0-18.65-3.21A11.65,11.65,0,0,0,19.82,97.79Z"/>
        <path class="a" d="M41.39,114a11.71,11.71,0,0,0,7.85-7.23,11.62,11.62,0,0,0-18.25,5A11.59,11.59,0,0,0,41.39,114Z"/>
        <path class="a" d="M58,105.76A51.3,51.3,0,0,1,33.47,16.81"/>
      </g>
      <g>
        <path class="a" d="M94.38,5.65A12.16,12.16,0,0,1,97.6,16.2a12,12,0,0,1-10.37-3.53A12.17,12.17,0,0,1,84,2.13,12,12,0,0,1,94.38,5.65Z"/>
        <path class="a" d="M114.57,21.65a11.73,11.73,0,0,1-5.7,9,11.8,11.8,0,0,1,1.76-19A11.8,11.8,0,0,1,114.57,21.65Z"/>
        <path class="a" d="M124.51,46.85a11.68,11.68,0,0,1-9,5.77,11.82,11.82,0,0,1,.59-10.7,11.68,11.68,0,0,1,9-5.77A11.86,11.86,0,0,1,124.51,46.85Z"/>
        <path class="a" d="M122.94,73.92a11.53,11.53,0,0,1-10.53,1.41,11.8,11.8,0,0,1,5-9.44A11.6,11.6,0,0,1,128,64.48,11.76,11.76,0,0,1,122.94,73.92Z"/>
        <path class="a" d="M110.18,97.79A11.55,11.55,0,0,1,100,94.58a11.6,11.6,0,0,1,18.65-3.2A11.66,11.66,0,0,1,110.18,97.79Z"/>
        <path class="a" d="M88.61,114a11.69,11.69,0,0,1-7.85-7.23,11.62,11.62,0,0,1,18.25,5A11.58,11.58,0,0,1,88.61,114Z"/>
        <path class="a" d="M72,105.76A51.29,51.29,0,0,0,96.53,16.82"/>
      </g>
    </g>
  </g>
</svg>
