<?xml version="1.0" encoding="utf-8"?>
<!-- Generator: Adobe Illustrator 21.1.0, SVG Export Plug-In . SVG Version: 6.00 Build 0)  -->
<svg version="1.1" id="Isolation_Mode" xmlns="http://www.w3.org/2000/svg" xmlns:xlink="http://www.w3.org/1999/xlink" x="0px"
	 y="0px" viewBox="0 0 40 40" style="enable-background:new 0 0 40 40;" xml:space="preserve">
<style type="text/css">
	.st0{fill-rule:evenodd;clip-rule:evenodd;fill:#FFFFFF;}
</style>
<g>
	<g>
		<path class="st0" d="M20.2,9C14.3,9,9.5,13.8,9.5,19.7c0,2,0.6,3.9,1.5,5.5L9.1,31l5.9-1.9c1.5,0.8,3.3,1.3,5.2,1.3
			c5.9,0,10.7-4.8,10.7-10.7C30.9,13.8,26.1,9,20.2,9z M20.2,28.6c-1.8,0-3.5-0.5-4.9-1.5l-3.4,1.1L13,25c-1.1-1.5-1.7-3.3-1.7-5.2
			c0-4.9,4-8.9,8.9-8.9c4.9,0,8.9,4,8.9,8.9C29.1,24.6,25.1,28.6,20.2,28.6z M25.2,22.2c-0.3-0.1-1.6-0.9-1.8-1
			c-0.2-0.1-0.4-0.2-0.6,0.1c-0.2,0.3-0.7,0.9-0.9,1c-0.2,0.2-0.3,0.2-0.6,0c-0.3-0.1-1.1-0.5-2.2-1.4c-0.8-0.8-1.3-1.7-1.5-2
			c-0.1-0.3,0-0.4,0.1-0.6c0.1-0.1,0.3-0.3,0.4-0.5c0.1-0.2,0.2-0.3,0.3-0.4c0.1-0.2,0.1-0.3,0-0.5c-0.1-0.1-0.6-1.5-0.8-2.1
			c-0.2-0.6-0.4-0.5-0.6-0.5c-0.2,0-0.3,0-0.5,0c-0.2,0-0.5,0.1-0.7,0.3c-0.3,0.3-1,0.9-1,2.2c-0.1,1.3,0.9,2.7,1,2.9
			c0.1,0.2,1.8,3.1,4.5,4.3c2.7,1.2,2.8,0.8,3.3,0.8c0.5,0,1.6-0.6,1.9-1.2c0.3-0.6,0.3-1.2,0.2-1.3C25.7,22.4,25.5,22.3,25.2,22.2z
			"/>
	</g>
</g>
</svg>
