<svg viewBox="0 0 22 22" fill="none" xmlns="http://www.w3.org/2000/svg">
<path fill-rule="evenodd" clip-rule="evenodd" d="M11.2 0C5.29998 0 0.499975 4.8 0.499975 10.7C0.499975 12.7 1.09998 14.6 1.99998 16.2L0.0999756 22L5.99998 20.1C7.49998 20.9 9.29998 21.4 11.2 21.4C17.1 21.4 21.9 16.6 21.9 10.7C21.9 4.8 17.1 0 11.2 0ZM11.2 19.6C9.39998 19.6 7.69998 19.1 6.29998 18.1L2.89997 19.2L3.99998 16C2.89998 14.5 2.29998 12.7 2.29998 10.8C2.29998 5.9 6.29998 1.9 11.2 1.9C16.1 1.9 20.1 5.9 20.1 10.8C20.1 15.6 16.1 19.6 11.2 19.6ZM16.2 13.2C15.9 13.1 14.6 12.3 14.4 12.2C14.2 12.1 14 12 13.8 12.3C13.6 12.6 13.1 13.2 12.9 13.3C12.7 13.5 12.6 13.5 12.3 13.3C12 13.2 11.2 12.8 10.1 11.9C9.29998 11.1 8.79998 10.2 8.59998 9.9C8.49998 9.6 8.59998 9.5 8.69998 9.3C8.79998 9.2 8.99998 9 9.09998 8.8C9.19998 8.6 9.29997 8.5 9.39997 8.4C9.49997 8.2 9.49997 8.1 9.39997 7.9C9.29997 7.8 8.79998 6.4 8.59998 5.8C8.39998 5.2 8.19998 5.3 7.99998 5.3C7.79998 5.3 7.69998 5.3 7.49998 5.3C7.29998 5.3 6.99998 5.4 6.79998 5.6C6.49998 5.9 5.79998 6.5 5.79998 7.8C5.69998 9.1 6.69998 10.5 6.79998 10.7C6.89998 10.9 8.59997 13.8 11.3 15C14 16.2 14.1 15.8 14.6 15.8C15.1 15.8 16.2 15.2 16.5 14.6C16.8 14 16.8 13.4 16.7 13.3C16.7 13.4 16.5 13.3 16.2 13.2Z" />
</svg>
